<svg xmlns="http://www.w3.org/2000/svg" fill-rule="evenodd" stroke-linejoin="round" stroke-miterlimit="2" clip-rule="evenodd" viewBox="0 0 1472 1124"><path fill="#303030" fill-rule="nonzero" d="M599.4 742.7c3.1-4 7-6.7 11.5-8.3 4.6-1.6 9.7-2.4 15.3-2.4 2.6 0 5.2.1 7.8.4l8.5.7a19 19 0 01-5.3 7.4 39.5 39.5 0 01-8.4 5.7 81.3 81.3 0 01-19.9 7.3c-.6.3-1.4.5-2.2.6l-2.4.2c-1.3 0-2.9-.4-4.7-1.2-1.8-.7-2.7-2.2-2.7-4.4 0-2 .8-4 2.5-6m-3.2 17.3c2.1 1 4.5 1.6 7.2 2a65 65 0 0022.8-1.4 68.2 68.2 0 0025.6-12.5c3.7-2.9 7.3-5.8 10.7-9 8 2 15.9 4.5 23.6 7.4 7.8 3 15.5 5.9 23.3 8.6 7.8 2.7 15.6 5 23.4 7a98.4 98.4 0 0038 1.8c5-.7 10-2 14.5-3.6 4.5-1.7 8.3-3.8 11.3-6.4a12 12 0 004.6-9.5c0-2-.8-3.6-2.3-4.8a7.9 7.9 0 00-5.3-2c-1.5 0-2.8.3-3.9 1a418.9 418.9 0 01-13.7 6.6 84.5 84.5 0 01-18.8 5.8c-3.1.5-6.7.8-10.5.8-9 0-18.3-1.2-27.8-3.5-9.4-2.3-18.5-5-27.3-8.2a148 148 0 00-11.9-3.7c-4-1.1-8-2.7-11.8-4.6 6.2-11.5 11.9-23 17-34.5 5.2-11.6 10.3-23.3 15.2-35.4 2.6-6.2 5-12.4 7-18.8a253.1 253.1 0 0110.8-27.6c1.5-3 3.2-5.8 5.3-8.3 2-2.4 4.4-4.5 7.2-6a19 19 0 019.9-2.5c3.7 0 6.7 1 8.9 3s3.3 5.5 3.3 10.4a34.3 34.3 0 01-18 31.1c-.5.2-1 .3-1.6.3-1.4 0-2.6-.6-3.5-1.8-1-1.3-1.8-1.9-2.7-1.9-.8 0-1.5.4-2 1-.6.6-1 1.5-1 2.5 0 2.4 1 4.1 2.6 5.4 1.7 1.2 3.8 1.8 6.4 1.8 1.7 0 3.1-.2 4.4-.7a45.6 45.6 0 0019.6-17.8 42.3 42.3 0 005.3-21.3c0-3.9-.8-7.1-2.3-9.9-1.6-2.7-3.7-5-6.3-6.7-2.5-1.7-5.5-3-8.9-3.8-3.3-.9-6.9-1.3-10.6-1.3l-4.1.6a40 40 0 00-15 5 52.7 52.7 0 00-11.6 9.2 62.2 62.2 0 00-8.7 11.8 85.4 85.4 0 00-6 12.6l-12.7 32.6a1907.8 1907.8 0 00-19 49.8l-3.8 8.5a31.4 31.4 0 01-4.1 6.5l-13.6-.8c-4.3-.3-8.5-.4-12.6-.4A42.3 42.3 0 00600 731c-3.2 2-5.9 4.5-8 7.4-2 2.9-3 6.1-3 9.6 0 3.2.6 5.8 2 7.8 1.3 1.9 3 3.4 5.2 4.3"/><path fill="#303030" fill-rule="nonzero" d="M780.8 706.8v1.3c0 1-.3 2.3-.9 3.6-.5 1.4-1.3 2.6-2.3 3.8-1 1.2-2.2 2.1-3.6 2.9a9.2 9.2 0 01-10-.7 15 15 0 01-3.7-4.5 26.2 26.2 0 01-2.6-10.7 55.1 55.1 0 011.4-8.1c7 6 14.2 10.2 21.7 12.4m-14-33.1c1.3-1.5 2-3.2 2-5.2l-.3-1.5c-.2-.5-.3-1-.3-1.6 0-1.4.8-2.4 2.5-2.9a15 15 0 014.3-.7c2.2 0 4 .7 5.5 2a17 17 0 013.7 5.4 34.6 34.6 0 012.8 13.1c0 2.2-.1 4.5-.4 6.8l-.8 7-2.3.2c-2.7 0-5.2-.6-7.4-1.7a20.7 20.7 0 01-10-10c-1-2-1.4-4-1.4-6 0-1.8.7-3.4 2-5m-8.8-14.2l-6.8 7.6a44.6 44.6 0 00-11.6 30.3c0 9.1 2.4 16.5 7.3 22.2a25.3 25.3 0 0020.2 8.4 25 25 0 0014.8-4.4c4.1-2.9 7-7.2 8.5-12.9.4-1.5 1-2.5 1.9-3l4-1.8a48 48 0 0019.7-17.9c1.3-2.4 2-4.8 2-7.1 0-2.5-1-4-2.8-4.3-2.3 3.5-4.3 6.3-5.9 8.4a39 39 0 01-4.6 5.3 22 22 0 01-4.7 3.3c-1.6.8-3.6 1.7-5.9 2.6.1-2.9.3-5.2.5-7a40 40 0 00-5.1-25.4 24.7 24.7 0 00-7.1-7.8c-3-2-6.3-3-10.2-3a17 17 0 00-8.3 1.9 20.6 20.6 0 00-5.9 4.6"/><path fill="#303030" fill-rule="nonzero" d="M839.8 708c0 3.2-1.5 5.8-4.5 7.8s-6.3 3-10 3c-2.8 0-5-.5-7-1.5a5 5 0 01-2.8-4.7c0-2 .7-3.4 2.2-4.3 1.4-.9 3.1-1.5 5.1-2 2-.3 4-.5 6.1-.5h10.7l.2 2.1M826 678.7l7.9 9.5c2.4 3 4 5.8 4.4 8l-.7.8-.8.3-9 .7c-3.3.3-6.5.9-9.6 1.8-3 .9-5.6 2.3-7.7 4.2-2.1 2-3.2 4.7-3.2 8.2 0 2.2.5 4.2 1.5 6.1 1 1.9 2.4 3.5 4.1 4.8a20.4 20.4 0 0012.2 4 39.4 39.4 0 0025.6-9.3c2.2-2 4-4.1 5-6.6 1.1-2 2-3.8 3-5.2.9-1.4 2.5-2.5 4.8-3.1 6-1.8 10.5-4.4 13.4-7.8 3-3.3 5.3-7.5 7-12.6.5-.8.8-1.7.8-2.7 0-1-.2-2-.7-3-.4-.8-1.2-1.3-2.2-1.3-.5 0-1 0-1.2.2a122 122 0 01-3.3 7.2 33 33 0 01-4 6.3 20.2 20.2 0 01-5.6 4.7c-2.1 1.2-4.7 2-7.8 2.4-1-1-1.4-1.5-1.4-1.8-1-4-2.7-7.6-5-10.8-2.4-3.3-4.9-6.4-7.6-9.3l-8.2-9a36 36 0 01-6.4-9.7c-.2-.2-.3-.7-.3-1.5 0-1.6.7-3.3 2.2-5.3 1.5-2 3.7-3 6.7-3 1.3 0 2.5.3 3.6 1.1a59 59 0 013.2 2.4c1 .9 2 1.7 3.2 2.5 1 .7 2.3 1.1 3.8 1.1.9 0 1.5-.2 1.9-.8.4-.5.6-1 .6-1.7a7 7 0 00-2.2-5 19.8 19.8 0 00-5-3.7 29.4 29.4 0 00-11.4-3.3 26 26 0 00-9.7 1.6 20.2 20.2 0 00-11.2 10.8c-1 2.3-1.5 4.7-1.5 7.2 0 3.5 1.1 7 3.3 10.4 2.2 3.5 4.7 7 7.5 10.2M627.2 982.3c-5 3.4-10.8 5.1-17.2 5.1-4.6 0-8.6-.8-11.8-2.5a8.5 8.5 0 01-4.8-8c0-3.4 1.2-5.8 3.7-7.4a25 25 0 018.7-3.3c3.5-.6 7-1 10.5-1h18.2c.2.9.3 2.1.3 3.7 0 5.5-2.5 10-7.6 13.4m-42.2-20c4.8-5.9 9.1-11.8 13-18a100.4 100.4 0 0012.2-26.8l1.3 1.5 13.4 16.2c4.2 5.2 6.7 9.8 7.6 13.8l-1.3 1.1c-.4.4-.9.5-1.3.5-4.4.5-9.5 1-15.3 1.4-5.7.4-11.2 1.4-16.4 3-5.2 1.5-9.6 4-13.2 7.2m-193.7-30a96.7 96.7 0 00-4.1 5.3c.2-2.8.3-5.7.3-8.6 0-7-.7-12.7-2.1-17a19.7 19.7 0 00-6.2-9.5 20 20 0 00-9.5-4c-2.8-.5-5.7-.8-8.8-.9-.3-.7-.4-1.4-.4-2 0-1.3.4-2.6 1.3-4.2 4.1-3.4 7.7-7.3 10.8-11.7 4.3-3.6 9.2-6.8 14.7-9.7a64 64 0 0136.8-7 98.4 98.4 0 005.8 16.2c2.3 5 7.1 9.4 14.4 13.4l-12.3 7c-7.5 4.1-14.8 9-21.8 14.5-7.1 5.5-13.4 11.6-19 18.2m88-107.8c5.5-4.8 11.8-9.2 19.1-13.3 7.3-4 15-7.5 23.4-10.2a74 74 0 0123.3-4.2 5 5 0 014 2 6.2 6.2 0 011.7 4c0 1.7-1 3.6-3 5.6a108 108 0 01-74.9 31.5c-.4 0-1-.2-1.5-.7l-2.1-1.3c1.3-4.2 4.6-8.7 10-13.4M781 915.8c-1-.5-1.7-.8-2.3-.8-1 0-2.2.7-3.9 2.1a11.1 11.1 0 00-3.1 3.8c-3.3 5.1-6.9 11-10.8 17.6-3.8 6.6-8 13.2-12.7 19.7-4.7 6.5-9.8 12.3-15.4 17.4-5.7 5.1-11.8 8.4-18.4 10-.7.4-1.7.6-3 .6-2.9 0-5-1.6-6.5-5a40.6 40.6 0 01-2.8-8.6c.7-12.3 2.7-24.7 6-37 3.3-12.5 7.3-24.8 12-37 4.5-12.3 9.4-24.5 14.5-36.6 5-12.2 9.8-24.1 14.2-35.8 6.2-1 13-1.7 20.4-2.4a1316 1316 0 0144.6-3.3c7-.4 13.4-1 19-2a64 64 0 0013.5-3.3c3.3-1.3 5-3 5-5.3 0-.9-.6-1.4-1.6-1.6-1-.2-2.1-.4-3.4-.4H836a2961.2 2961.2 0 00-56.2 2.8c-7.2.4-12.9.6-17 .6-3 0-4.7-.2-5.3-.4 3.7-6.2 7-12.1 10-17.9a103.6 103.6 0 007.8-20.8c0-2.3-.8-4-2.6-5a13 13 0 00-7-1.7c-5 0-9.6 1.7-13.7 5s-7.8 7.4-11.1 12.3a190 190 0 00-9.3 15c-2.9 5.2-5.5 9.7-8 13.5-5.7 0-10-.2-12.7-.4a78.6 78.6 0 01-16.2-2.8c-3.2-.8-8-1.7-14.5-2.8-5 0-7.6 1.9-7.6 5.6a10 10 0 005.7 9.6c3.7 2 8 3.5 12.9 4.3 4.8 1 9.6 1.4 14.4 1.4h10.1c-.4 1.7-1.3 3.6-2.5 5.4-1.2 2-2 3.3-2.1 4.2-3.4 7.7-7 16.5-11.1 26.3a366.4 366.4 0 00-20 65c-1.3 6.8-2.2 13.5-2.8 20.2a42 42 0 01-7.9 1.7c-1.5-1.6-2.3-2.6-2.3-3a55 55 0 00-8.6-18.6c-4-5.5-8.3-10.8-13-15.9l-13.9-15.2c-4.6-5-8.3-10.6-11-16.6-.3-.4-.6-1.3-.6-2.6a16 16 0 013.8-9.1c2.6-3.5 6.4-5.2 11.5-5.2 2.2 0 4.2.7 6.1 2a102 102 0 015.5 4.2l5.4 4.1c2 1.3 4 2 6.5 2 1.5 0 2.7-.5 3.3-1.3.7-1 1-2 1-3 0-3.1-1.2-6-3.6-8.5a34 34 0 00-8.7-6.4 50.2 50.2 0 00-19.5-5.7c-6.2 0-11.7 1-16.4 2.9a34.6 34.6 0 00-19.2 18.3c-1.7 4-2.5 8.1-2.5 12.3 0 6 1.9 12 5.6 17.9 2.5 3.9 5.2 7.7 8 11.4-1.6.1-2.7.9-3.3 2.3a141.7 141.7 0 01-25.6 33.8 697.2 697.2 0 01-32.1 29.5 183.2 183.2 0 01-63.6 33.6c-7.8 2.2-15 3.2-21.9 3.2a67 67 0 01-19.5-2.8 53 53 0 01-16.3-8 35 35 0 01-13.3-39.6 94 94 0 0131.6-41 170.3 170.3 0 0139-21.2c3-1.4 6.1-2 9.7-2 3 0 6.3.4 9.7 1.1a45.9 45.9 0 0023.6-1c3.4-1.4 5.1-4.1 5.1-8 0-4.3-2.7-7.1-8.1-8.5a67.6 67.6 0 00-23.7-2l-6.3.1c-6 0-11.2-.2-15.6-.6-4.4-.5-8.1-1.5-11-3.2-3-1.6-5.4-4-7-7.1-1.7-3-2.8-7.3-3.2-12.6l21.2-3.3c9-1.3 18.9-3.5 29.5-6.6 10.6-3.1 20.4-7 29.5-11.6 9-4.7 16.6-10 22.7-16 6-5.9 9.1-12.5 9.1-19.8 0-6.4-3.4-12.2-10.3-17.2-6.8-5.1-15.4-7.7-25.8-7.7-11.5 0-22.8 1.9-33.8 5.5-11 3.6-21.3 8.6-30.7 14.7a102.6 102.6 0 00-24.2 22 81.2 81.2 0 00-14.4 27c-6.6 1.2-14.3 2.7-23 4.6-7.3 1.5-14.4 3.7-21.2 6.4 2.4-8 3.6-16.1 3.6-24.5 0-17.3-4.8-29.4-14.4-36.3a63.2 63.2 0 00-37.8-10.4 91 91 0 00-59.9 22 79.4 79.4 0 00-18.2 23.7c-4.6 8.9-6.8 18.1-6.8 27.8 0 3 .5 6.5 1.7 10.4 1 3.8 3.2 5.7 6.3 5.7 2 0 4.3-.7 6.8-2.1a36.4 36.4 0 0013-12.1 13 13 0 002.3-7c0-1.4-.1-3-.4-4.7a35.5 35.5 0 014.2-23.1c3.1-5.3 7.2-9.7 12.1-13.4 5-3.7 10.4-6.5 16.2-8.3a68 68 0 0117.2-3.2c7.6 0 13.1 2 16.5 5.8 3.4 3.8 5.1 9 5.1 15.4 0 6.8-1.6 14.6-4.9 23.4-3.2 8.8-7.7 17.3-13.3 25.5a141.6 141.6 0 01-19.6 22.7 79 79 0 01-23 15.5 6 6 0 00-.3 2.5c0 2.3.3 4.6 1 7 .7 2.4 1.8 3.6 3.2 3.6l10.2-3a315.7 315.7 0 0124.2-6.7c4.8 2.2 8.4 5.4 10.6 9.5 2.3 4.1 3.4 8.6 3.4 13.4 0 10.5-3.3 21.2-10 32.3a146.4 146.4 0 01-55 52.8 62.2 62.2 0 01-28.8 8.7 28 28 0 01-11.9-2.5c-3.7-1.7-7-4-10-6.8s-5.3-6.2-7-10.2a31 31 0 01-2.5-12.3c0-4.8.1-9.3.4-13.4.3-4 .4-8.5.4-13.4 0-4.2-1-7.7-3.2-10.6a10.7 10.7 0 00-9.1-4.2 17 17 0 00-10.2 2.7 17.2 17.2 0 00-5.7 7 32.3 32.3 0 00-2.6 9.2 54.8 54.8 0 005.7 35c4.3 8 10 14.7 17 20.4a87.5 87.5 0 0052.6 17.8 121 121 0 0049.8-10.2 127.7 127.7 0 0060.7-55.3c.7 6.4 2.7 12.5 6 18.4a66 66 0 0017.6 19.7 97.4 97.4 0 0057.2 18.4c16.4 0 31.2-2.9 44.6-8.6a151.2 151.2 0 0035.6-21.2c7.7-6.2 15.6-12.8 23.5-19.7a260 260 0 0024.8-24.8c-2 3-2.9 6.6-2.9 10.9 0 3.7.9 7.2 2.7 10.4 1.7 3.2 4 5.9 7 8.1a34.9 34.9 0 0020.9 7 67.4 67.4 0 0031-7.5c4.7-2.3 8.9-5.1 12.6-8.4 3.8-3.3 6.7-7.1 8.6-11.3 1.8-3.5 3.5-6.5 5-9 1.6-2.4 4.3-4.1 8.3-5.2l1-.4v1.5c0 13.4 2.9 23.5 8.6 30.3 5.8 6.7 14 10 24.9 10a25.7 25.7 0 0014.5-4.2c6.5-4.4 12.2-9.3 17.3-14.8 5-5.4 9.8-11.1 14-17.2 4.4-6 8.5-12.4 12.5-18.9l12-20c.6-1.1 1-2.6 1.4-4.3.3-1.8.5-3.3.5-4.7 0-.6-.4-1.2-1.3-1.8"/><path fill="#303030" fill-rule="nonzero" d="M1210.1 914l-6.6 15.8c-2.2 5.4-4.2 10.8-5.8 16.2-1.7 5.4-2.8 10.3-3.5 14.8-4 5-8.2 9.4-12.6 13-4.4 3.7-9.7 7-15.9 10.2-6.4-1.4-9.6-5.6-9.6-12.6 0-7.6 2-15.5 6.3-23.9a126 126 0 0133-41.3c6-4.7 11-7 15-7 2 0 3.8.4 5.3 1.2-1.5 4-3.4 8.6-5.6 13.6m-419-33.6c-.1 1.5-.7 2.2-1.8 2.2-3 0-4.9-1-6-2.8a10.3 10.3 0 01-1.7-5.2c0-1 .4-2.4 1-4.1.7-1.7 1.6-2.5 2.7-2.5 2.6 0 4.2 1.2 4.8 3.5.5 2.3 1 4 1.5 5.1a32 32 0 00-.5 3.8m129 25.3c3.2-3.7 6.5-7.1 10.2-10.2 3.6-3.1 7.4-5.7 11.2-7.7 3.9-2 7.5-3 10.8-3h2.7c2.6 2 4 4.5 4 7.4 0 2.6-1 5.8-2.9 9.4a54 54 0 01-7.4 10.8c-3.1 3.5-6.7 6.5-10.8 9a24 24 0 01-12.4 3.6c-3.8 0-6.4-1-7.8-2.7-1.5-1.8-3-3.5-4.8-5.3a54 54 0 017.3-11.3m128.9-36a11981.1 11981.1 0 0025-47c1.4-3.2 3-6.2 4.6-9 1.7-2.7 3.7-5 6-7s5.1-3 8.4-3l.7 1 .3 1.8c.2.8.4 1.7.4 2.8 0 2.4-.6 6-1.7 11a79.1 79.1 0 01-8.1 19 238.9 238.9 0 01-19.4 28.7 464.3 464.3 0 01-35.1 39.7c5.7-12.6 12-25.2 18.9-38m74.9 0a11783.6 11783.6 0 0025-47c1.4-3.2 3-6.2 4.6-9 1.7-2.7 3.7-5 6-7s5.1-3 8.4-3l.7 1 .3 1.8c.2.8.4 1.7.4 2.8 0 2.4-.6 6-1.7 11a79.1 79.1 0 01-8.1 19 239.2 239.2 0 01-19.4 28.7 464.4 464.4 0 01-35.1 39.7c5.7-12.6 12-25.2 18.9-38m158.5 50.5c-1.2-1.5-2.2-1.5-3.1-.2a299 299 0 01-13.1 20.7L1259 952l-5.8 9a117.2 117.2 0 01-13 15.8 44 44 0 01-7 5.7 11.8 11.8 0 01-5.9 2.1c-2.6 0-4-2-4-6.3a39.2 39.2 0 012.7-13.6 189.7 189.7 0 0116.8-46.9l7-15.7a35 35 0 003.2-5.5c1-2 1.5-3.9 1.5-5.4 0-1.8-.5-3.5-1.6-5a13.7 13.7 0 00-4.2-3.8c-1.6-1-3.3-1.8-5-2.3-1.6-.6-3.1-.9-4.4-.9a14 14 0 00-9.1 3.8c-3 2.6-5.7 4.9-8.2 6.8-8-3.7-16-5.6-24.2-5.6-8.8 0-17.3 2.5-25.6 7.5a82 82 0 00-21.9 19.2 103.9 103.9 0 00-15.2 26 74.3 74.3 0 00-5.8 28.2c0 3 .2 6 .8 9-2.6 4.6-5.5 9.2-8.6 13.7-4.3 6-9 11.2-14.3 15.5a25.7 25.7 0 01-16.7 6.5c-1.8 0-3.3-.7-4.7-2.2a18.7 18.7 0 01-3.3-5.1 29.9 29.9 0 01-2.6-12.3 91 91 0 014-25.5c2.6-9 5.5-17.8 8.6-26.2 28.7-28 50.8-53 66.2-75 15.5-22 23.2-40 23.2-53.9 0-4.2-.7-7.7-2.3-10.6a19.6 19.6 0 00-5.8-6.8c-2.3-1.6-5-2.8-8-3.6a31.8 31.8 0 00-21.5 1.5c-4 1.8-7.3 4.4-9.7 8-4.7 4.4-9.8 11-15.5 20-5.6 9-11.3 19.2-17.2 30.6a671.8 671.8 0 00-17.2 36.7c-5.6 12.9-10.6 25.6-15 38a381.6 381.6 0 00-10.4 35.4c-1 4.4-1.9 8.5-2.5 12.3a151 151 0 01-10.2 16.7c-4.3 6-9 11.2-14.3 15.5a25.7 25.7 0 01-16.7 6.5c-1.8 0-3.3-.7-4.6-2.2a18.7 18.7 0 01-3.4-5.1 29.9 29.9 0 01-2.6-12.3 91 91 0 014-25.5 404 404 0 018.6-26.2c28.7-28 50.8-53 66.3-75 15.4-22 23.2-40 23.2-53.9 0-4.2-.8-7.7-2.4-10.6a19.5 19.5 0 00-5.8-6.8c-2.3-1.6-5-2.8-8-3.6a31.8 31.8 0 00-21.5 1.5c-4 1.8-7.3 4.4-9.7 8-4.7 4.4-9.8 11-15.4 20-5.7 9-11.4 19.2-17.3 30.6a672.6 672.6 0 00-28 63.3l-2 2a199 199 0 00-7.3 11.6 252.2 252.2 0 01-22.3 32c-4.6 5.6-9.4 10.7-14.4 15-5.1 4.5-10.5 8.1-16.3 11a38.9 38.9 0 01-17.5 4.3c-6.9 0-12-2.3-15.6-7a29.9 29.9 0 01-5.3-18.5c0-5 .6-9.8 1.8-14.2 1.2-4.5 3-8.9 5.1-13.3l9.3 2a53.2 53.2 0 0040.1-7.6c8-5.8 14-14.3 18.2-25.5.5-2.3.7-4.1.7-5.7 0-10.1-2.5-17.4-7.6-21.7-5.1-4.3-12.6-6.4-22.5-6.4-6.2 0-12 .8-17.4 2.6-5.5 1.8-10.5 4-15.1 6.6a78.4 78.4 0 00-40.2 53.2l-.4.6-11.6 16.7a200 200 0 01-14.3 18.4 48.1 48.1 0 01-15.7 12.6c-.9.9-1.9 1.3-3 1.3-1.5 0-2.8-.8-3.8-2.3-1-1.6-1.5-2.7-1.5-3.3 0-4.9 1.3-9.5 3.8-14 2.6-4.4 5.4-8.7 8.6-13 3.2-4.3 6.1-8.7 8.7-13 2.5-4.3 3.8-8.6 3.8-13 0-4.2-1.4-8.2-4.2-11.8a49 49 0 00-10.6-10.1c-4.3-3.1-9-5.8-13.9-8.1-5-2.4-9.8-4.4-14.4-6.2l.8-6.6c.3-2 .5-4 .5-6.3 0-5.3-2-10-6-14-4-3.9-9.5-5.9-16.5-5.9-5.1 0-9.3 1.6-12.6 4.8-3.3 3.2-5 7.4-5 12.5 0 5 1.3 9.3 3.8 12.9 2.6 3.5 5.8 6.4 9.6 8.8 3.9 2.3 8.1 4.2 12.6 5.8l12.6 4.1c3.9 1.2 7 2.5 9.6 4 2.6 1.4 3.8 3.1 3.8 5.1 0 1.8-.8 4.4-2.6 8-2 4.2-4.3 8.4-7 12.6-2.6 4.2-5.1 8.4-7.4 12.5a84.3 84.3 0 00-5.8 13c-1.6 4.4-2.3 9-2.3 13.6 0 3.5.5 7 1.6 10.6a27 27 0 0014 16.2c3.5 1.8 7.7 2.7 12.5 2.7 5.1 0 9.7-1.3 14-3.9 4.1-2.5 8.1-6 11.9-10.4a534.5 534.5 0 0021.2-28l2.6-4v.5a45.1 45.1 0 0029.5 42.4 56.7 56.7 0 0020.9 3.6c6 0 11.3-1 16-3 7.9-3.5 15.2-7.8 22-13a129.7 129.7 0 0028.8-30.6l-.9 3.6c-2.6 11-4 20.3-4 27.8v4.1c0 1.5.2 2.7.4 3.8l1 5.3a28.5 28.5 0 0012 18.6 35 35 0 0019.8 6.3c8 0 15.6-3.1 22.9-9.4 6.8-6 13.1-13.1 19-21.7l.2 1 1 5.2a28.5 28.5 0 0012 18.6 35 35 0 0019.8 6.3c8 0 15.6-3.1 22.9-9.4a116.7 116.7 0 0023.6-28.6 34.8 34.8 0 0012 12.3c3.2 2 6.3 2.8 9.4 2.8 6.4 0 13-2 19.6-6.2 6.6-4.2 12.8-8.7 18.5-13.3 4.4 5.7 8.3 10.2 11.5 13.4 3.2 3.2 7.2 4.8 12 4.8 7.6 0 14.6-2.4 21.3-7.3a91 91 0 0018.2-18c5.5-7.2 10.5-15 15-23.6 4.6-8.5 8.5-16.4 11.8-23.7.5-1.7.7-3 .7-4-.4-1-1.3-2.3-2.5-3.7"/><path fill="#ffc343" d="M918.4 756.1l69.4-213.7 111.7-36-181.1 249.7zM370.2 624.4l-181 131.5 181-248.8v117.3zm912.3 131.3L1101.2 624V507l181.3 248.7zm-798.2-213l69.2 212.9-181.5-249 112.3 36.1zM552 755.4L371.2 624V507l180.9 248.4zM1214.4 543l69 212.1-181.7-249 112.7 37zm-114.2 81.4L920.4 755.1l179.8-248v117.3zM188.8 754.8l69-212.6 111.9-36-181 248.6zm547.7-367.4l363 118-111.9 36-131-95.1 62 191-182.1-250zm-1.3 118L554.3 636.8l181-248v116.6zM916.5 636L736.2 505V388.7L916.5 636zm-362.7 0l61.6-189.7-131.2 95.3-112.3-36.2 363-118L553.8 636zm660.2-94.2l-111.2-36.5 293.3-95.9L1214 541.8zm-845.4-36.4l-111.2 36L79 411.5l289.7 93.8zm.8-.8L76.3 409.7l-1-.8H301l68.3 95.7zm801.4-95.7h223.6L1102 504.5l68.6-96 .1.4zm-436.6-22.3L372.3 504.2l69-95.3H604L441.4 291l292.8 95.7zM868 409H1031l68 95.2-361.7-117.5 292.7-95.4L868 408.9zm232.2 95.1l-68.7-96.2 68.7-211.4V504zm1-309.3l69 212.6-69 96.7V194.7zm-730 0l69.4 213.5-69.4 95.8V194.7zm-1 309.3l-68.7-96.2 68.7-211.4V504zm366-428.3l69.2 213-69.2 97v-310zm-1 310l-68.8-96.4 68.8-211.9v308.2zm70.6-95.8h224.8l-293 95.6 68.2-95.6zm-72 95.6L442 289.9h223.6l68.3 95.6z"/></svg>